<svg xmlns="http://www.w3.org/2000/svg" width="500" height="500">
    <path fill="#fcb732" d="M250,0c67.885,0 76.404,0.288 103.077,1.5c26.615,1.231 44.788,5.462 60.673,11.615c16.685,6.279 31.801,16.124 44.288,28.847c12.716,12.49 22.554,27.605 28.827,44.288c6.193,15.885 10.423,34.058 11.635,60.673c1.212,26.673 1.5,35.192 1.5,103.077c0,67.885 -0.288,76.404 -1.5,103.077c-1.231,26.615 -5.462,44.788 -11.615,60.673c-6.279,16.685 -16.124,31.8 -28.847,44.288c-12.487,12.723 -27.603,22.568 -44.288,28.847c-15.885,6.173 -34.058,10.403 -60.673,11.615c-26.673,1.212 -35.192,1.5 -103.077,1.5c-67.885,0 -76.404,-0.288 -103.077,-1.5c-26.615,-1.231 -44.788,-5.462 -60.692,-11.615c-16.678,-6.282 -31.787,-16.127 -44.269,-28.847c-13.904,-13.903 -22.443,-27.846 -28.847,-44.288c-6.173,-15.885 -10.403,-34.058 -11.615,-60.673c-1.212,-26.673 -1.5,-35.192 -1.5,-103.077c0,-67.885 0.288,-76.404 1.5,-103.077c1.231,-26.615 5.442,-44.788 11.615,-60.673c6.279,-16.685 16.124,-31.8 28.847,-44.288c12.482,-12.72 27.591,-22.565 44.269,-28.847c15.904,-6.173 34.077,-10.403 60.692,-11.615c26.673,-1.212 35.192,-1.5 103.077,-1.5Zm-101.017,97.028l-0,305.944l77.824,-0l0,-89.522l53.933,0c22.798,0 42.604,-4.414 59.416,-13.241c16.813,-8.828 29.857,-21.312 39.134,-37.453c9.277,-16.141 13.916,-35.141 13.916,-56.998l-0,-0.424c-0,-21.856 -4.639,-40.893 -13.916,-57.11c-9.277,-16.217 -22.321,-28.804 -39.134,-37.761c-16.812,-8.956 -36.618,-13.435 -59.416,-13.435l-131.757,0Zm77.824,157.63l0,-97.86l35.239,-0c16.491,-0 29.361,4.109 38.612,12.328c9.25,8.219 13.875,20.322 13.875,36.307l0,0.424c0,15.846 -4.625,27.941 -13.875,36.285c-9.251,8.344 -22.121,12.516 -38.612,12.516l-35.239,-0Z"/>
</svg>