<svg xmlns="http://www.w3.org/2000/svg" width="100%" height="100%" viewBox="0 0 16 16">
    <path d="M8,0c2.172,0 2.445,0.009 3.298,0.048c0.852,0.039 1.434,0.175 1.942,0.372c0.534,0.201 1.018,0.516 1.417,0.923c0.407,0.399 0.722,0.883 0.923,1.417c0.198,0.508 0.333,1.09 0.372,1.942c0.039,0.853 0.048,1.126 0.048,3.298c0,2.172 -0.009,2.445 -0.048,3.298c-0.039,0.852 -0.175,1.434 -0.372,1.942c-0.201,0.534 -0.516,1.018 -0.923,1.417c-0.399,0.407 -0.883,0.722 -1.417,0.923c-0.508,0.198 -1.09,0.333 -1.942,0.372c-0.853,0.039 -1.126,0.048 -3.298,0.048c-2.172,0 -2.445,-0.009 -3.298,-0.048c-0.852,-0.039 -1.434,-0.175 -1.943,-0.372c-0.533,-0.201 -1.017,-0.516 -1.416,-0.923c-0.445,-0.445 -0.718,-0.891 -0.923,-1.417c-0.198,-0.508 -0.333,-1.09 -0.372,-1.942c-0.039,-0.853 -0.048,-1.126 -0.048,-3.298c0,-2.172 0.009,-2.445 0.048,-3.298c0.039,-0.852 0.174,-1.434 0.372,-1.942c0.201,-0.534 0.516,-1.018 0.923,-1.417c0.399,-0.407 0.883,-0.722 1.416,-0.923c0.509,-0.198 1.091,-0.333 1.943,-0.372c0.853,-0.039 1.126,-0.048 3.298,-0.048Zm-3.233,3.105l0,9.79l2.491,0l-0,-2.865l1.726,0c0.729,0 1.363,-0.141 1.901,-0.423c0.538,-0.283 0.955,-0.682 1.252,-1.199c0.297,-0.516 0.446,-1.124 0.446,-1.824l-0,-0.013c-0,-0.7 -0.149,-1.309 -0.446,-1.828c-0.297,-0.519 -0.714,-0.922 -1.252,-1.208c-0.538,-0.287 -1.172,-0.43 -1.901,-0.43l-4.217,-0Zm2.491,5.044l-0,-3.131l1.127,-0c0.528,-0 0.94,0.131 1.236,0.394c0.296,0.263 0.444,0.65 0.444,1.162l0,0.013c0,0.508 -0.148,0.895 -0.444,1.162c-0.296,0.267 -0.708,0.4 -1.236,0.4l-1.127,0Z" style="fill-rule:nonzero;"/>
</svg>
